<?xml version="1.0" ?><svg id="Icons" style="enable-background:new 0 0 32 32;" version="1.1" viewBox="0 0 32 32" xml:space="preserve" xmlns="http://www.w3.org/2000/svg" xmlns:xlink="http://www.w3.org/1999/xlink"><path d="M31.6,10.8c0-0.3-0.2-0.5-0.4-0.7C31,10,30.7,10,30.4,10c-6,1.5-12.8,1.5-18.8,0c-0.3-0.1-0.6,0-0.8,0.1s-0.4,0.4-0.4,0.7  c-0.2,1.4-0.4,2.9-0.4,4.3C10,24.4,14.9,32,21,32s11-7.6,11-16.9C32,13.7,31.9,12.3,31.6,10.8z M15,21c-0.6,0-1-0.4-1-1  c0-1.7,1.3-3,3-3s3,1.3,3,3c0,0.6-0.4,1-1,1s-1-0.4-1-1c0-0.6-0.4-1-1-1s-1,0.4-1,1C16,20.6,15.6,21,15,21z M21,28  c-2.6,0-4.8-2.1-5-4.9c0-0.4,0.2-0.7,0.5-0.9c0.3-0.2,0.7-0.2,1.1,0c1.9,1.2,5,1.2,6.9,0c0.3-0.2,0.7-0.2,1.1,0  c0.3,0.2,0.5,0.6,0.5,0.9C25.8,25.9,23.6,28,21,28z M27,21c-0.6,0-1-0.4-1-1c0-0.6-0.4-1-1-1s-1,0.4-1,1c0,0.6-0.4,1-1,1s-1-0.4-1-1  c0-1.7,1.3-3,3-3s3,1.3,3,3C28,20.6,27.6,21,27,21z"/><path d="M8,16.6c-0.2,0.1-0.4,0.2-0.5,0.3C7.4,16.9,7.2,17,7,17c-0.2,0-0.4,0-0.5-0.1C6.2,16.7,6,16.3,6,15.9c0.1-1.7,1-3.1,2.2-4  c0.1-0.5,0.1-0.9,0.2-1.4c0.1-0.4,0.2-0.8,0.5-1.2C8.3,9.7,7.7,10,7,10c-1.7,0-3-1.3-3-3c0-0.6,0.4-1,1-1s1,0.4,1,1c0,0.6,0.4,1,1,1  s1-0.4,1-1c0-0.6,0.4-1,1-1s1,0.4,1,1c0,0.6-0.2,1.2-0.5,1.7c0.1-0.1,0.1-0.1,0.2-0.2c0.7-0.5,1.6-0.6,2.4-0.4c0,0,0.1,0,0.1,0  C12.1,7.8,12,7.4,12,7c0-0.6,0.4-1,1-1s1,0.4,1,1c0,0.6,0.4,1,1,1s1-0.4,1-1c0-0.6,0.4-1,1-1s1,0.4,1,1c0,0.8-0.3,1.4-0.8,2  c1.5,0.1,3,0.2,4.4,0.2c0.2-1.3,0.3-2.7,0.3-4c0-1.4-0.1-2.9-0.4-4.3c0-0.3-0.2-0.5-0.4-0.7C21,0,20.7,0,20.4,0  c-6,1.5-12.8,1.5-18.8,0C1.3,0,1,0,0.8,0.2C0.6,0.3,0.4,0.6,0.4,0.8C0.1,2.3,0,3.7,0,5.1c0,8.1,3.8,15,8.8,16.5  C8.4,20.1,8.1,18.4,8,16.6z"/></svg>