<?xml version="1.0" ?><svg id="Icons" style="enable-background:new 0 0 32 32;" version="1.1" viewBox="0 0 32 32" xml:space="preserve" xmlns="http://www.w3.org/2000/svg" xmlns:xlink="http://www.w3.org/1999/xlink"><style type="text/css">
	.st0{fill:#FFFFFF;}
</style><path d="M28.9,9.4C28.9,9.4,28.9,9.4,28.9,9.4C28.9,9.3,29,9.2,29,9.1c0,0,0,0,0-0.1c0,0,0,0,0-0.1c0-0.1,0-0.2,0-0.3c0,0,0,0,0-0.1  c0-0.1-0.1-0.2-0.1-0.3c0,0,0,0,0,0c-0.1-0.1-0.1-0.1-0.2-0.2l-11-7c-0.3-0.2-0.8-0.2-1.1,0l-13,9c0,0-0.1,0.1-0.1,0.1  c0,0,0,0-0.1,0c-0.1,0.1-0.1,0.2-0.2,0.3c0,0,0,0,0,0.1C3,10.8,3,10.9,3,11c0,0,0,0,0,0v6v6c0,0.3,0.2,0.7,0.5,0.8l11,7  c0.2,0.1,0.4,0.2,0.5,0.2c0.2,0,0.4-0.1,0.6-0.2l13-9c0.2-0.2,0.4-0.4,0.4-0.7s-0.1-0.6-0.3-0.8c-0.9-0.9-1.1-2.2-0.5-3.4l0.7-1.5  c0-0.1,0.1-0.2,0.1-0.3c0,0,0-0.1,0-0.1c0,0,0,0,0,0c0-0.1,0-0.3-0.1-0.4c0,0,0-0.1,0-0.1c0-0.1-0.1-0.2-0.2-0.3c0,0,0,0,0,0  c-0.9-0.9-1.1-2.2-0.5-3.4L28.9,9.4z M26.6,14.8l-11.6,8L5,16.5v-3.6l9.5,6c0.2,0.1,0.4,0.2,0.5,0.2c0.2,0,0.4-0.1,0.6-0.2l10.3-7.1  C25.8,12.8,26,13.8,26.6,14.8z M15,28.8L5,22.5v-3.6l9.5,6c0.2,0.1,0.4,0.2,0.5,0.2c0.2,0,0.4-0.1,0.6-0.2l10.3-7.1  c-0.1,1.1,0.1,2.2,0.7,3.1L15,28.8z"/></svg>