<svg viewBox="0 0 32 32">
    <path
        d="M31.6,5.2C31.4,5,31,5,30.7,5C21.1,7.6,10.9,7.6,1.3,5C1,5,0.6,5,0.4,5.2C0.1,5.4,0,5.7,0,6v20c0,0.3,0.1,0.6,0.4,0.8  S1,27,1.3,27c9.6-2.6,19.8-2.6,29.5,0c0.1,0,0.2,0,0.3,0c0.2,0,0.4-0.1,0.6-0.2c0.2-0.2,0.4-0.5,0.4-0.8V6C32,5.7,31.9,5.4,31.6,5.2  z M20.1,17.7l-5,3c-0.3,0.2-0.7,0.3-1,0.3c-0.3,0-0.7-0.1-1-0.3c-0.6-0.4-1-1-1-1.7V13c0-0.7,0.4-1.3,1-1.7c0.6-0.4,1.4-0.3,2,0l5,3  c0.6,0.4,0.9,1,0.9,1.7S20.6,17.3,20.1,17.7z"
        fill="var(--movie-paragraph-color)" /></svg>