<svg viewBox="0 0 300 200">
 <path d="m150 0c-12 0-23.8 0.899-35 2.7v15.2 74.6 15 74.6 15.2c4.9 0.8 9.9 1.4 15 1.8v-15.1-76.6h17.5v77.5 15h2.5c4.2 0 8.4-0.101 12.5-0.301v-15-77.1-15-77.1-15.1c-4.1-0.2-8.3-0.301-12.5-0.301zm27.5 1.6v15.1 75.7 15 75.7 15.1c5.1-0.6 10.1-1.4 15-2.4v-15.3-73.2h17.5v68.6 15.6 0.0996c5.1-1.5 10.2-3.1 15-5v-16-63.1-15-63.1-16.1-0.102c-14.5-5.6-30.5-9.5-47.5-11.6zm-77.5 4c-17.5 4.18-34.5 10.3-50 19.4v17.8c10.7-7.52 22.8-12.9 35.1-17.4v149c-8.68-2.99-17-6.97-25.1-11.2v17c12.7 6.25 26.4 11.2 40 14.1v-189zm47.5 9.4v77.5h-17.5v-76.6c5.7-0.5 11.6-0.8 17.5-0.9zm87.5 2.4v90.1h49.5c-2.49 18.8-14.9 34.6-29.6 45.9-2.01 1.67-5 3.7-5 3.7s9e-3 -2.3 0-4.05v-15.4h-15v45.1c9.79-4.63 19.5-9.36 28.1-16.1 12.2-9.33 23.1-20.9 29.6-34.9 5.93-11.8 8.11-25.3 6.82-38.4h-49.6v-50.3c12.4 8.64 23.4 19.7 29.8 33.6v-27.1c-9.28-10.6-20.5-19.3-32.7-26.2-3.74-2.24-8.46-4.52-11.9-5.9zm-42.5 2c6 1.3 11.9 2.8 17.5 4.6v68.5h-17.5v-73.1zm-152 12.1c-18.4 13.2-34.1 32.2-38.8 54.9-3.7 17.4 0.0719 35.9 9.12 51 5.37 9.42 12.9 17.5 21 24.7 5.58 4.83 11.6 9.03 17.9 12.9v-17.8c-13-9.14-24.6-21.1-30.9-35.9-1.71-4.31-2.87-8.83-3.6-13.4h40.1v-15.3h-39.5c1.69-12.6 7.94-24.3 16.3-33.8 3.84-4.72 8-8.2 8-8.2l0.398-19z"/>
</svg>
