<svg xmlns="http://www.w3.org/2000/svg" width="1em" height="1em" viewBox="0 -6 69.5 69.5"
    style="transform:translateX(-2px)">
    <path
        d="M4.8 24.8C23.4 16.7 35.9 11.3 42.1 8.7 59.9 1.3 63.6 0 66 0 66.5 0 67.7 0.1 68.5 0.7c0.6 0.5 0.8 1.2 0.9 1.7 0.1 0.5 0.2 1.6 0.1 2.5-1 10.1-5.1 34.7-7.3 46-0.9 4.8-2.7 6.4-4.4 6.6C54.1 57.9 51.3 55.1 47.7 52.8 42.1 49.1 38.9 46.8 33.4 43.2 27.1 39 31.2 36.7 34.8 33 35.7 32 52.1 17.1 52.4 15.7c0-0.2 0.1-0.8-0.3-1.1-0.4-0.3-0.9-0.2-1.3-0.1-0.6 0.1-9.6 6.1-27 17.8-2.6 1.8-4.9 2.6-6.9 2.6-2.3 0-6.7-1.3-9.9-2.4C2.9 31.2-0.3 30.5 0 28.3 0.2 27.2 1.7 26 4.8 24.8Z" />
</svg>