<svg viewBox="0 0 35.570322 273.42001">
      <path
            d="M 35.37 81.57 L 35.37 17.67 C 35.37 12.9836 33.5083 8.48919 30.1946 5.17542 C 26.8808 1.86166 22.3864 -5.68434e-14 17.7 -5.68434e-14 L 17.7 -5.68434e-14 C 13.0084 -0.00796533 8.50628 1.85017 5.18603 5.1648 C 1.86577 8.47944 -6.76174e-06 12.9784 1.76214e-14 17.67 L 1.37088e-14 81.57 C -6.76174e-06 86.2616 1.86577 90.7606 5.18603 94.0752 C 8.50628 97.3898 13.0084 99.248 17.7 99.24 L 17.7 99.24 C 22.3864 99.24 26.8808 97.3783 30.1946 94.0646 C 33.5083 90.7508 35.37 86.2564 35.37 81.57 Z M 35.42 263.32 L 35.42 255.52 L 6.92 255.52 L 6.92 245.42 L 1.71445e-15 245.42 L 0 273.42 L 6.9 273.42 L 6.9 263.32 Z M 35.42 235.22 L 35.42 227.42 L 8.25 227.42 L 8.25 227.32 L 35.4 218.37 L 35.4 212.37 L 8.25 203.12 L 8.25 203.02 L 35.4 203.02 L 35.4 195.22 L 4.78821e-15 195.22 L 4.06875e-15 206.97 L 23.1 215.17 L 23.1 215.27 L 3.06152e-15 223.42 L 2.339e-15 235.22 Z M 0.12 184.28 L 0.12 172.58 C 0.124186 169.856 0.45999 167.143 1.12 164.5 C 1.69095 162.093 2.73822 159.825 4.2 157.83 C 5.65108 155.9 7.54408 154.347 9.72 153.3 C 12.3051 152.117 15.1282 151.545 17.97 151.63 C 20.588 151.576 23.1828 152.13 25.55 153.25 C 27.6801 154.293 29.5571 155.787 31.05 157.63 C 32.5623 159.516 33.7056 161.67 34.42 163.98 C 35.1951 166.421 35.5832 168.969 35.57 171.53 L 35.57 184.28 Z M 28.32 176.48 L 28.32 172.48 C 28.3315 170.798 28.1469 169.12 27.77 167.48 C 27.473 166.017 26.8698 164.633 26 163.42 C 25.1236 162.262 23.9722 161.341 22.65 160.74 C 21.0506 160.038 19.3162 159.696 17.57 159.74 C 16.0054 159.71 14.4561 160.053 13.05 160.74 C 11.8039 161.364 10.7164 162.263 9.87 163.37 C 9.01566 164.52 8.38165 165.819 8 167.2 C 7.57407 168.723 7.36204 170.298 7.37 171.88 L 7.37 176.48 Z M 0.12 140.33 L 0.12 127.13 C 0.120755 125.581 0.23103 124.034 0.45 122.5 C 0.638461 121.045 1.07834 119.634 1.75 118.33 C 2.38214 117.112 3.31928 116.078 4.47 115.33 C 5.8742 114.5 7.49089 114.1 9.12 114.18 C 10.9341 114.111 12.7112 114.705 14.12 115.85 C 15.4736 117.019 16.4541 118.559 16.94 120.28 L 17 120.28 C 17.1581 119.173 17.4959 118.099 18 117.1 C 18.463 116.178 19.0899 115.348 19.85 114.65 C 20.6112 113.959 21.5016 113.425 22.47 113.08 C 23.4954 112.708 24.5791 112.521 25.67 112.53 C 27.3131 112.47 28.9385 112.887 30.35 113.73 C 31.5787 114.514 32.6062 115.576 33.35 116.83 C 34.1412 118.148 34.6994 119.592 35 121.1 C 35.3333 122.655 35.5009 124.24 35.5 125.83 L 35.5 140.33 Z M 14.27 132.53 L 14.27 126.88 C 14.2733 126.281 14.2061 125.683 14.07 125.1 C 13.9488 124.542 13.7287 124.01 13.42 123.53 C 13.1178 123.061 12.7059 122.674 12.22 122.4 C 11.6663 122.107 11.0462 121.962 10.42 121.98 C 9.78358 121.948 9.15146 122.101 8.6 122.42 C 8.12747 122.73 7.73922 123.153 7.47 123.65 C 7.19022 124.207 6.99796 124.804 6.9 125.42 C 6.78211 126.03 6.72185 126.649 6.72 127.27 L 6.72 132.57 Z M 28.92 132.53 L 28.92 125.53 C 28.9216 124.914 28.8546 124.301 28.72 123.7 C 28.5979 123.103 28.3601 122.536 28.02 122.03 C 27.687 121.525 27.2422 121.105 26.72 120.8 C 26.1238 120.472 25.4504 120.309 24.77 120.33 C 24.0522 120.303 23.3468 120.522 22.77 120.95 C 22.251 121.37 21.8453 121.913 21.59 122.53 C 21.3231 123.171 21.1383 123.843 21.04 124.53 C 20.9436 125.209 20.8934 125.894 20.89 126.58 L 20.89 132.48 Z" />
</svg>